<svg width="1024" height="1024" viewBox="0 0 1024 1024" fill="none" xmlns="http://www.w3.org/2000/svg">
<ellipse cx="323" cy="361.5" rx="267" ry="266.5" fill="url(#paint0_linear_7_44)"/>
<path d="M511.763 928C561.857 877.906 590 809.963 590 739.119C590 668.274 561.857 600.332 511.763 550.237C461.668 500.143 393.726 472 322.881 472C252.037 472 184.094 500.143 134 550.237L511.763 928Z" fill="url(#paint1_linear_7_44)"/>
<path d="M512.066 928C462.081 877.906 434 809.963 434 739.119C434 668.274 462.081 600.332 512.066 550.237C562.05 500.143 629.844 472 700.533 472C771.222 472 839.015 500.143 889 550.237L512.066 928Z" fill="url(#paint2_linear_7_44)"/>
<ellipse cx="701" cy="361.5" rx="267" ry="266.5" fill="url(#paint3_linear_7_44)"/>
<mask id="path-5-outside-1_7_44" maskUnits="userSpaceOnUse" x="29.4387" y="68.064" width="966" height="899" fill="black">
<rect fill="white" x="29.4387" y="68.064" width="966" height="899"/>
<path fill-rule="evenodd" clip-rule="evenodd" d="M512.143 550.455L512.048 550.55L512.143 550.456L512.143 550.455ZM511.83 550.768L511.987 550.612L511.83 550.768L511.83 550.768ZM881.832 558.155L511.987 928L511.83 927.843L511.674 928L134.286 550.612L134.442 550.455C86.2429 502.177 56.4387 435.528 56.4387 361.918C56.4387 214.538 175.913 95.064 323.292 95.064C397.062 95.064 463.839 124.997 512.143 173.38C560.446 124.997 627.224 95.064 700.993 95.064C848.372 95.064 967.847 214.538 967.847 361.918C967.847 439.524 934.718 509.393 881.832 558.155Z"/>
</mask>
<path d="M512.048 550.55L492.947 531.468L531.094 569.688L512.048 550.55ZM512.143 550.455L531.235 531.364L512.134 512.262L493.042 531.373L512.143 550.455ZM512.143 550.456L531.189 569.594L550.373 550.502L531.235 531.364L512.143 550.456ZM511.987 550.612L531.086 569.696L492.921 531.494L511.987 550.612ZM511.83 550.768L492.738 569.86L511.838 588.96L530.93 569.853L511.83 550.768ZM511.83 550.768L492.764 531.65L473.62 550.742L492.738 569.86L511.83 550.768ZM511.987 928L492.886 947.083L511.978 966.193L531.079 947.092L511.987 928ZM881.832 558.155L863.53 538.304L863.127 538.676L862.74 539.063L881.832 558.155ZM511.83 927.843L530.931 908.761L511.83 889.641L492.729 908.761L511.83 927.843ZM511.674 928L492.582 947.092L511.683 966.193L530.775 947.083L511.674 928ZM134.286 550.612L115.202 531.511L96.0935 550.603L115.194 569.704L134.286 550.612ZM134.442 550.455L153.526 569.556L172.619 550.48L153.55 531.379L134.442 550.455ZM512.143 173.38L493.035 192.456L512.143 211.595L531.25 192.456L512.143 173.38ZM531.149 569.633L531.244 569.538L493.042 531.373L492.947 531.468L531.149 569.633ZM493.097 531.318L493.002 531.412L531.094 569.688L531.189 569.594L493.097 531.318ZM493.051 569.547L493.051 569.548L531.235 531.364L531.235 531.364L493.051 569.547ZM492.887 531.527L492.731 531.684L530.93 569.853L531.086 569.696L492.887 531.527ZM530.896 569.886L531.053 569.73L492.921 531.494L492.764 531.65L530.896 569.886ZM530.922 531.677L530.922 531.676L492.738 569.86L492.738 569.86L530.922 531.677ZM531.079 947.092L900.924 577.247L862.74 539.063L492.895 908.908L531.079 947.092ZM492.729 946.926L492.886 947.083L531.088 908.917L530.931 908.761L492.729 946.926ZM530.775 947.083L530.931 946.926L492.729 908.761L492.573 908.917L530.775 947.083ZM115.194 569.704L492.582 947.092L530.766 908.908L153.378 531.52L115.194 569.704ZM115.359 531.355L115.202 531.511L153.369 569.712L153.526 569.556L115.359 531.355ZM29.4387 361.918C29.4387 442.968 62.2879 516.398 115.334 569.532L153.55 531.379C110.198 487.956 83.4387 428.088 83.4387 361.918H29.4387ZM323.292 68.064C161.001 68.064 29.4387 199.627 29.4387 361.918H83.4387C83.4387 229.45 190.825 122.064 323.292 122.064V68.064ZM531.25 154.304C478.089 101.055 404.518 68.064 323.292 68.064V122.064C389.605 122.064 449.589 148.939 493.035 192.456L531.25 154.304ZM700.993 68.064C619.767 68.064 546.196 101.055 493.035 154.304L531.25 192.456C574.696 148.939 634.681 122.064 700.993 122.064V68.064ZM994.847 361.918C994.847 199.627 863.284 68.064 700.993 68.064V122.064C833.461 122.064 940.847 229.45 940.847 361.918H994.847ZM900.134 578.005C958.332 524.347 994.847 447.376 994.847 361.918H940.847C940.847 431.672 911.105 494.44 863.53 538.304L900.134 578.005Z" fill="url(#paint4_linear_7_44)" fill-opacity="0.35" mask="url(#path-5-outside-1_7_44)"/>
<defs>
<linearGradient id="paint0_linear_7_44" x1="323" y1="95" x2="323" y2="628" gradientUnits="userSpaceOnUse">
<stop stop-color="#8FB4FF"/>
<stop offset="1" stop-color="#EA98D5"/>
</linearGradient>
<linearGradient id="paint1_linear_7_44" x1="511.763" y1="550.237" x2="134" y2="928" gradientUnits="userSpaceOnUse">
<stop stop-color="#8FB4FF"/>
<stop offset="1" stop-color="#EA98D5"/>
</linearGradient>
<linearGradient id="paint2_linear_7_44" x1="512.066" y1="550.237" x2="889.828" y2="927.171" gradientUnits="userSpaceOnUse">
<stop stop-color="#8FB4FF"/>
<stop offset="1" stop-color="#EA98D5"/>
</linearGradient>
<linearGradient id="paint3_linear_7_44" x1="701" y1="95" x2="701" y2="628" gradientUnits="userSpaceOnUse">
<stop stop-color="#8FB4FF"/>
<stop offset="1" stop-color="#EA98D5"/>
</linearGradient>
<linearGradient id="paint4_linear_7_44" x1="512.143" y1="60.1677" x2="512.143" y2="928" gradientUnits="userSpaceOnUse">
<stop stop-color="#D1D1D1" stop-opacity="0.1"/>
<stop offset="1" stop-color="#D1D1D1"/>
</linearGradient>
</defs>
</svg>
