<svg width="520" height="520" viewBox="0 0 520 520" fill="none" xmlns="http://www.w3.org/2000/svg">
<rect width="520" height="520" fill="url(#paint0_radial_55_12)"/>
<path d="M349.006 120.556C349.516 119.226 348.971 117.724 347.727 117.031L334.191 109.497C332.946 108.804 331.382 109.132 330.521 110.266L310.42 136.731C309.367 138.118 309.786 140.115 311.307 140.962L333.041 153.06C334.562 153.906 336.48 153.21 337.104 151.585L349.006 120.556Z" fill="white"/>
<path d="M170.109 398.445C169.599 399.774 170.144 401.276 171.388 401.969L184.924 409.504C186.169 410.196 187.733 409.868 188.594 408.734L208.695 382.269C209.748 380.883 209.329 378.885 207.808 378.039L186.074 365.94C184.553 365.094 182.635 365.79 182.011 367.416L170.109 398.445Z" fill="white"/>
<path d="M412.534 321.99C413.934 322.248 415.311 321.436 415.764 320.086L420.692 305.399C421.145 304.049 420.537 302.571 419.264 301.932L389.565 287.018C388.009 286.237 386.122 287.014 385.568 288.665L377.655 312.247C377.102 313.897 378.138 315.656 379.849 315.971L412.534 321.99Z" fill="white"/>
<path d="M106.581 197.011C105.181 196.753 103.804 197.564 103.351 198.914L98.4226 213.601C97.9696 214.951 98.5784 216.429 99.851 217.068L129.55 231.982C131.106 232.763 132.993 231.986 133.546 230.336L141.46 206.753C142.013 205.103 140.977 203.345 139.266 203.029L106.581 197.011Z" fill="white"/>
<path d="M424.611 267.493C426.018 267.27 427.046 266.047 427.024 264.623L426.781 249.133C426.759 247.709 425.693 246.518 424.28 246.339L391.309 242.164C389.582 241.945 388.062 243.307 388.089 245.047L388.479 269.919C388.506 271.659 390.069 272.972 391.788 272.7L424.611 267.493Z" fill="white"/>
<path d="M94.5038 251.507C93.0973 251.73 92.069 252.954 92.0914 254.377L92.3341 269.867C92.3564 271.291 93.4225 272.482 94.8353 272.661L127.806 276.836C129.533 277.055 131.053 275.694 131.026 273.953L130.636 249.081C130.609 247.341 129.046 246.028 127.327 246.301L94.5038 251.507Z" fill="white"/>
<path d="M417.001 209.318C418.241 208.617 418.777 207.112 418.258 205.785L412.619 191.356C412.1 190.03 410.685 189.287 409.299 189.613L376.948 197.221C375.253 197.619 374.304 199.426 374.938 201.047L383.994 224.215C384.627 225.837 386.55 226.521 388.066 225.665L417.001 209.318Z" fill="white"/>
<path d="M102.114 309.683C100.874 310.383 100.338 311.889 100.857 313.215L106.497 327.644C107.015 328.97 108.43 329.713 109.816 329.387L142.167 321.779C143.862 321.381 144.811 319.574 144.177 317.953L135.121 294.785C134.488 293.164 132.565 292.479 131.049 293.336L102.114 309.683Z" fill="white"/>
<path d="M391.001 159.355C391.934 158.278 391.933 156.68 390.999 155.605L380.841 143.908C379.907 142.833 378.325 142.609 377.129 143.381L349.212 161.413C347.75 162.357 347.463 164.377 348.604 165.692L364.915 184.472C366.056 185.787 368.097 185.786 369.237 184.47L391.001 159.355Z" fill="white"/>
<path d="M128.114 359.646C127.181 360.722 127.182 362.32 128.116 363.395L138.274 375.092C139.208 376.167 140.79 376.392 141.986 375.619L169.903 357.588C171.365 356.643 171.652 354.623 170.511 353.309L154.2 334.528C153.059 333.214 151.018 333.215 149.878 334.53L128.114 359.646Z" fill="white"/>
<path d="M330.521 110.266C331.382 109.132 332.946 108.804 334.191 109.497L347.727 117.031C348.971 117.724 349.516 119.226 349.006 120.556L337.104 151.585C336.48 153.21 334.562 153.907 333.041 153.06L311.307 140.962C309.786 140.115 309.367 138.118 310.42 136.731L330.521 110.266Z" fill="white"/>
<path d="M188.594 408.734C187.733 409.868 186.169 410.196 184.924 409.504L171.388 401.969C170.144 401.276 169.598 399.774 170.108 398.444L182.011 367.415C182.635 365.79 184.553 365.094 186.074 365.94L207.808 378.039C209.329 378.885 209.748 380.883 208.695 382.269L188.594 408.734Z" fill="white"/>
<path d="M125.844 162.406C124.887 161.352 124.851 159.754 125.759 158.657L135.646 146.73C136.554 145.634 138.131 145.373 139.345 146.118L167.669 163.502C169.153 164.412 169.486 166.426 168.375 167.766L152.501 186.917C151.39 188.257 149.35 188.303 148.18 187.014L125.844 162.406Z" fill="white"/>
<path d="M393.271 356.594C394.228 357.648 394.264 359.246 393.356 360.343L383.469 372.27C382.56 373.366 380.984 373.627 379.77 372.882L351.446 355.498C349.962 354.588 349.629 352.574 350.74 351.234L366.614 332.083C367.725 330.743 369.765 330.697 370.935 331.986L393.271 356.594Z" fill="white"/>
<path d="M165.798 123.427C165.247 122.114 165.745 120.595 166.967 119.864L180.26 111.909C181.482 111.178 183.056 111.457 183.953 112.563L204.873 138.386C205.969 139.738 205.613 141.748 204.119 142.642L182.775 155.415C181.281 156.309 179.342 155.673 178.668 154.068L165.798 123.427Z" fill="white"/>
<path d="M353.316 395.573C353.868 396.886 353.37 398.405 352.148 399.136L338.854 407.091C337.633 407.822 336.059 407.543 335.162 406.437L314.242 380.614C313.146 379.262 313.502 377.252 314.996 376.358L336.34 363.585C337.834 362.691 339.773 363.327 340.447 364.932L353.316 395.573Z" fill="white"/>
<path d="M219.253 99.2433C219.195 97.8204 220.193 96.5716 221.593 96.3133L236.828 93.5044C238.229 93.2461 239.606 94.0572 240.059 95.4072L250.638 126.912C251.193 128.562 250.157 130.321 248.445 130.636L223.983 135.147C222.271 135.462 220.676 134.189 220.605 132.449L219.253 99.2433Z" fill="white"/>
<path d="M299.862 419.757C299.919 421.18 298.922 422.429 297.522 422.687L282.287 425.496C280.886 425.754 279.509 424.943 279.056 423.593L268.476 392.088C267.922 390.438 268.958 388.68 270.67 388.364L295.132 383.854C296.844 383.538 298.439 384.812 298.51 386.551L299.862 419.757Z" fill="white"/>
<path d="M275.418 95.0157C275.841 93.6561 277.2 92.8147 278.606 93.0419L293.899 95.5128C295.305 95.74 296.33 96.9664 296.303 98.3902L295.687 131.618C295.655 133.359 294.089 134.667 292.37 134.389L267.814 130.422C266.095 130.144 265.021 128.409 265.539 126.747L275.418 95.0157Z" fill="white"/>
<path d="M243.697 423.984C243.274 425.344 241.915 426.186 240.509 425.958L225.216 423.487C223.81 423.26 222.785 422.034 222.812 420.61L223.428 387.382C223.46 385.642 225.026 384.333 226.745 384.611L251.301 388.578C253.02 388.856 254.094 390.591 253.576 392.253L243.697 423.984Z" fill="white"/>
<path fill-rule="evenodd" clip-rule="evenodd" d="M207.545 382.351C207.644 382.174 207.861 382.1 208.048 382.179C270.462 408.562 344.033 384.208 377.742 323.649C386.773 307.426 392.088 290.14 393.966 272.772C394.014 272.328 394.385 271.987 394.832 271.98V271.98C395.32 271.973 395.708 271.571 395.701 271.084L395.277 244.074C395.271 243.68 394.947 243.365 394.552 243.372V243.372C394.185 243.377 393.873 243.102 393.83 242.737C388.978 201.257 364.93 162.625 325.653 140.761C286.395 118.909 240.917 118.814 203.117 136.518C202.9 136.619 202.64 136.541 202.517 136.335V136.335C202.385 136.114 202.099 136.042 201.878 136.174L178.241 150.319C177.958 150.489 177.866 150.856 178.035 151.139V151.139C178.191 151.4 178.127 151.736 177.887 151.921C163.934 162.72 151.889 176.459 142.764 192.851C109.055 253.41 127.12 328.771 182.429 367.919C182.594 368.036 182.646 368.259 182.548 368.436V368.436C182.441 368.627 182.51 368.868 182.701 368.974L207.007 382.504C207.198 382.61 207.439 382.542 207.545 382.351V382.351ZM229.407 343.076C224.782 351.386 228.546 361.968 237.849 363.943C283.005 373.531 331.005 353.227 354.63 310.784C358.345 304.111 361.277 297.213 363.456 290.198C366.307 281.024 358.738 272.546 349.132 272.696L276.958 273.827C271.337 273.916 266.19 276.996 263.456 281.908L229.407 343.076ZM182.226 332.982C188.806 339.848 199.784 337.471 204.409 329.162L238.621 267.701C241.355 262.789 241.261 256.791 238.375 251.967L201.347 190.093C196.422 181.864 185.256 179.886 178.948 187.109C174.043 192.726 169.649 198.939 165.876 205.716C142.251 248.159 150.285 299.654 182.226 332.982ZM233.173 153.687C224.025 156.057 220.679 166.683 225.531 174.792L263.096 237.563C265.983 242.387 271.224 245.304 276.845 245.216L349.57 244.077C359.002 243.929 366.266 235.514 363.494 226.498C355.592 200.794 338.139 177.985 312.787 163.873C287.542 149.821 259.095 146.969 233.173 153.687Z" fill="white"/>
<defs>
<radialGradient id="paint0_radial_55_12" cx="0" cy="0" r="1" gradientUnits="userSpaceOnUse" gradientTransform="translate(260) rotate(90) scale(520)">
<stop stop-color="#8A8A8A"/>
<stop offset="1" stop-color="#444444"/>
</radialGradient>
</defs>
</svg>
