<svg width="520" height="520" viewBox="0 0 520 520" fill="none" xmlns="http://www.w3.org/2000/svg">
<rect width="520" height="520" fill="url(#paint0_radial_53_7)"/>
<path d="M96.7844 262.913H57C59.7315 260.181 61.1566 255.55 61.1566 248.899V193.795C61.1566 187.263 59.7315 182.632 57 179.781H86.096C88.4712 179.781 90.2526 180.613 91.2027 182.275C92.1527 183.938 92.6278 186.432 92.6278 189.638V191.657C92.6278 193.557 92.8653 194.508 93.4591 194.508C94.2904 194.508 95.2405 194.033 96.1906 192.845C97.1406 191.657 98.2095 190.351 99.5158 188.688C100.703 187.026 102.247 185.482 103.91 183.819C105.573 182.275 107.829 180.969 110.798 179.781C113.767 178.594 117.092 178 120.893 178C134.431 178 141.2 187.382 141.2 205.908L141.319 228.591V248.899C141.319 255.55 142.625 260.181 145.476 262.913H105.691C108.423 260.181 109.848 255.55 109.848 248.899V210.303C109.848 203.296 107.592 199.733 103.079 199.733C96.0719 199.733 92.6278 205.433 92.6278 216.597V248.899C92.6278 255.55 93.9342 260.181 96.7844 262.913Z" fill="#FF7E7E"/>
<path d="M149.011 244.386C149.011 238.33 150.198 232.748 152.811 227.76C155.305 222.772 158.749 218.616 163.143 215.29C167.537 211.965 172.287 209.115 177.394 206.977C182.382 204.84 187.964 203.058 193.902 201.752C196.752 201.277 198.177 199.495 198.177 196.526C198.177 195.101 197.94 193.676 197.702 192.37C197.465 191.182 196.989 189.876 196.277 188.57C195.564 187.382 194.496 186.313 193.07 185.601C191.645 184.888 189.864 184.532 187.845 184.532C184.995 184.651 182.382 185.482 179.769 187.144C177.157 188.807 174.781 190.945 172.881 193.32C170.862 195.695 168.962 198.07 167.3 200.446C165.518 202.821 163.856 204.84 162.193 206.502C160.53 208.165 159.105 208.996 157.799 208.996C156.849 208.996 155.899 208.64 155.186 207.927C154.474 207.215 154.117 206.265 154.117 205.196V198.664C154.117 198.427 153.999 197.595 153.999 196.408C153.999 195.22 153.999 194.27 153.999 193.795C153.999 193.32 154.117 192.607 154.236 191.657C154.355 190.707 154.592 189.995 155.067 189.282C155.424 188.688 155.899 188.095 156.492 187.501C163.143 181.207 174.188 178 189.626 178C196.158 178 202.096 179.069 207.321 181.207C212.547 183.344 216.822 186.076 220.029 189.52C223.117 192.964 225.61 196.764 227.273 200.921C228.936 205.077 229.767 209.352 229.767 213.628V248.899C229.767 255.55 231.073 260.181 233.924 262.913H204.828C201.265 262.913 199.246 261.25 198.652 257.806C198.177 255.075 197.108 253.65 195.564 253.65C194.495 253.65 193.189 254.244 191.764 255.431C190.339 256.619 188.795 257.806 187.37 259.231C185.826 260.657 183.57 261.844 180.482 263.032C177.394 264.219 173.95 264.694 170.15 264.694C164.331 264.694 159.343 262.794 155.186 258.875C151.03 254.956 149.011 250.087 149.011 244.386ZM193.902 209.471C189.745 209.471 185.945 211.728 182.501 216.241C179.057 220.753 177.394 226.335 177.394 233.223C177.394 244.149 181.076 249.612 188.676 249.612C191.764 249.612 194.139 248.424 195.802 245.93C197.464 243.436 198.296 240.111 198.296 236.073C198.296 233.579 198.177 230.373 198.177 226.454C198.177 222.535 198.177 219.328 198.177 216.834C198.177 214.222 197.821 212.321 197.227 211.134C196.514 210.065 195.446 209.471 193.902 209.471Z" fill="#FF7E7E"/>
<path d="M276.691 262.913H236.907C239.638 260.181 241.063 255.55 241.063 248.899V193.795C241.063 187.263 239.638 182.632 236.907 179.781H266.003C268.378 179.781 270.159 180.613 271.109 182.275C272.059 183.938 272.534 186.432 272.534 189.638V191.657C272.534 193.557 272.772 194.508 273.366 194.508C274.197 194.508 275.147 194.033 276.097 192.845C277.047 191.657 278.116 190.351 279.422 188.688C280.61 187.026 282.154 185.482 283.817 183.819C285.479 182.275 287.736 180.969 290.705 179.781C293.674 178.594 296.999 178 300.799 178C310.775 178 317.069 183.107 319.682 193.201C320.157 194.151 320.869 194.508 321.938 194.508C322.77 194.508 323.72 194.033 324.67 192.845C325.62 191.657 326.689 190.351 327.995 188.688C329.183 187.026 330.726 185.482 332.389 183.819C334.052 182.275 336.308 180.969 339.277 179.781C342.246 178.594 345.571 178 349.372 178C362.91 178 369.679 187.382 369.679 205.908L369.798 228.591V248.899C369.798 255.55 371.105 260.181 373.955 262.913H334.17C336.902 260.181 338.327 255.55 338.327 248.899V210.303C338.327 203.296 336.071 199.733 331.558 199.733C325.026 199.733 321.582 204.721 321.107 214.459L321.226 228.591V248.899C321.226 255.55 322.532 260.181 325.382 262.913H285.598C288.329 260.181 289.754 255.55 289.754 248.899V210.303C289.754 203.296 287.498 199.733 282.985 199.733C275.978 199.733 272.534 205.433 272.534 216.597V248.899C272.534 255.55 273.841 260.181 276.691 262.913Z" fill="#FFD8F0"/>
<path d="M389.597 252.462C381.284 244.149 377.246 233.936 377.483 222.06C377.602 210.184 381.996 199.852 390.547 191.182C399.216 182.513 409.548 178.119 421.543 178.119C433.063 178.119 442.92 182.275 450.995 190.351C459.19 198.664 463.228 208.877 462.99 220.753C462.753 232.629 458.477 242.961 450.045 251.512C441.257 260.3 430.925 264.694 419.049 264.694C407.411 264.694 397.672 260.657 389.597 252.462ZM414.536 184.413C410.617 185.007 407.886 189.163 406.223 196.883C404.561 204.602 404.561 213.628 406.223 223.96C407.767 234.292 410.498 242.843 414.299 249.731C418.099 256.619 422.018 259.706 425.937 258.994C429.737 258.4 432.35 254.244 434.013 246.643C435.557 239.042 435.557 229.898 434.132 219.447C432.588 209.234 429.856 200.683 426.056 193.795C422.256 186.907 418.337 183.819 414.536 184.413Z" fill="#FFD8F0"/>
<path d="M172.744 376.726C175.476 373.994 176.901 369.362 176.901 362.712V307.608C176.901 301.076 175.476 296.444 172.744 293.594H201.84C204.215 293.594 205.997 294.425 206.947 296.088C207.897 297.751 208.372 300.245 208.372 303.451V305.47C208.372 307.37 208.609 308.32 209.203 308.32C209.916 308.32 210.628 307.845 211.578 306.658C212.528 305.47 213.479 304.164 214.666 302.501C215.854 300.838 217.16 299.294 218.823 297.632C220.485 296.088 222.623 294.782 225.473 293.594C228.205 292.406 231.292 291.813 234.855 291.813C238.418 291.813 241.743 292.525 244.95 293.832C248.038 295.138 249.7 296.801 249.7 298.938C249.7 299.413 247.562 303.926 243.287 312.477C242.931 313.189 242.456 314.139 241.862 315.327C241.268 316.515 240.793 317.346 240.556 317.94C240.199 318.652 239.843 319.365 239.368 320.315C238.893 321.265 238.418 321.977 238.181 322.453C237.824 322.928 237.468 323.403 237.112 323.878C236.637 324.353 236.28 324.709 236.043 324.946C235.687 325.184 235.33 325.303 235.093 325.303C233.905 325.303 232.955 324.828 232.124 323.759C231.174 322.69 230.461 321.502 229.867 320.077C229.155 318.771 227.967 317.583 226.305 316.515C224.523 315.446 222.386 314.852 219.773 314.852C212.172 314.852 208.372 320.077 208.372 330.409V362.712C208.372 369.362 209.678 373.994 212.528 376.726H172.744Z" fill="#FF7E7E"/>
<path d="M250.884 306.301C250.884 305.826 251.24 305.232 252.19 304.757C252.428 304.757 253.378 304.282 255.041 303.451C256.703 302.62 258.128 301.907 259.435 301.195C260.741 300.601 262.404 299.77 264.541 298.819C266.679 297.869 268.579 296.919 270.361 296.207C272.023 295.494 273.805 294.782 275.705 294.069C277.605 293.356 279.267 292.881 280.811 292.406C282.236 292.05 283.543 291.813 284.493 291.813C285.562 291.813 286.393 292.169 286.987 292.644C287.462 293.119 287.818 293.713 287.937 294.188C287.937 294.663 288.056 295.494 288.056 296.444V362.712C288.056 369.362 289.362 373.994 292.212 376.726H252.428C255.159 373.994 256.584 369.362 256.584 362.712V315.327C256.584 315.089 256.466 314.614 256.466 314.021C256.466 313.546 256.347 313.071 256.347 312.596C256.228 312.239 256.109 311.764 255.872 311.17C255.634 310.695 255.397 310.22 255.159 309.864C254.922 309.508 254.566 309.151 254.091 308.795C253.616 308.439 253.14 308.201 252.665 307.964C251.478 307.608 250.884 307.014 250.884 306.301Z" fill="#FF7E7E"/>
<path d="M295.72 337.416C295.72 331.241 296.552 325.303 298.452 319.84C300.233 314.377 302.846 309.627 306.409 305.351C309.853 301.195 314.366 297.869 320.066 295.494C325.766 293.119 332.179 291.813 339.424 291.813C345.599 291.813 351.894 293.594 358.307 296.919C364.601 300.245 367.807 303.451 367.807 306.301C367.807 306.895 367.57 307.489 367.332 308.201C366.976 308.914 366.382 309.627 365.551 310.577C364.601 311.527 363.888 312.12 363.413 312.596C362.938 313.071 361.988 313.902 360.563 315.089C359.138 316.277 358.307 317.108 358.069 317.346C357.357 317.94 356.406 318.89 354.981 320.077C353.556 321.384 352.487 322.334 351.656 323.046C350.825 323.759 349.875 324.59 348.925 325.422C347.856 326.372 347.024 326.965 346.312 327.322C345.599 327.797 345.124 327.915 344.887 327.915C344.055 327.915 343.462 327.559 343.105 326.728C342.749 326.015 342.274 324.709 341.799 322.928C341.205 321.146 340.374 319.484 339.305 317.94C336.692 314.258 333.486 311.17 329.923 308.676C326.36 306.301 322.679 304.995 319.116 304.995C315.791 304.995 313.178 306.183 311.278 308.439C309.378 310.814 308.546 313.783 308.546 317.346C308.546 323.521 311.159 329.697 316.384 335.991C321.61 342.404 327.904 347.511 335.148 351.311C342.274 355.111 348.806 357.012 354.744 357.012C358.069 357.012 360.801 356.536 362.938 355.468C365.076 354.518 366.738 353.449 367.807 352.38C368.876 351.43 369.707 350.836 370.182 350.836C371.37 350.836 372.083 351.667 372.083 353.33C372.083 355.705 371.37 358.318 370.064 361.168C368.639 364.018 366.738 366.75 364.245 369.362C361.632 371.975 358.188 374.232 353.794 375.894C349.4 377.676 344.53 378.507 339.186 378.507C327.548 378.507 317.335 374.588 308.665 366.631C299.996 358.674 295.72 348.936 295.72 337.416Z" fill="#FFD8F0"/>
<path d="M389.597 366.275C381.284 357.962 377.246 347.748 377.483 335.872C377.602 323.996 381.996 313.664 390.547 304.995C399.216 296.325 409.548 291.931 421.543 291.931C433.063 291.931 442.92 296.088 450.995 304.164C459.19 312.477 463.228 322.69 462.99 334.566C462.753 346.442 458.477 356.774 450.045 365.325C441.257 374.113 430.925 378.507 419.049 378.507C407.411 378.507 397.672 374.469 389.597 366.275ZM414.536 298.226C410.617 298.819 407.886 302.976 406.223 310.695C404.56 318.415 404.56 327.44 406.223 337.773C407.767 348.105 410.498 356.655 414.299 363.543C418.099 370.431 422.018 373.519 425.937 372.807C429.737 372.213 432.35 368.056 434.013 360.456C435.557 352.855 435.557 343.71 434.132 333.26C432.588 323.046 429.856 314.496 426.056 307.608C422.256 300.72 418.337 297.632 414.536 298.226Z" fill="#FFD8F0"/>
<path d="M268.216 248.13C267.958 247.889 267.688 247.644 267.409 247.401C266.249 246.389 264.796 245.281 263.344 244.659C261.558 243.893 259.625 243.802 258.007 243.969C256.391 244.137 254.886 244.583 253.859 245.097C252.796 245.628 251.377 246.72 250.106 248.142C248.822 249.578 247.542 251.514 246.971 253.799C246.308 256.451 246.418 258.775 246.696 260.443C246.835 261.278 247.017 261.955 247.17 262.435C247.247 262.676 247.316 262.868 247.37 263.008C247.396 263.076 247.418 263.131 247.436 263.174L247.454 263.224C247.48 263.297 247.518 263.402 247.568 263.537C247.668 263.805 247.814 264.191 248.005 264.669C248.386 265.625 248.947 266.958 249.669 268.478C251.102 271.491 253.224 275.354 255.914 278.458C260.053 283.234 266.32 288.603 268.928 290.69L269.637 291.256L270.535 291.128L275.94 290.356L276.873 290.223L277.393 289.437C280.047 285.423 283.926 279.314 287.194 273.813C288.827 271.064 290.322 268.444 291.437 266.303C291.994 265.235 292.47 264.26 292.824 263.435C293.152 262.672 293.464 261.838 293.553 261.13C293.768 259.41 294.002 257.508 293.658 255.256C293.312 252.989 292.408 250.505 290.568 247.438C288.432 243.878 285.009 242.278 281.899 241.723C278.855 241.179 275.826 241.579 274.045 242.342C272.327 243.079 270.77 244.688 269.611 246.162C269.109 246.8 268.638 247.469 268.216 248.13Z" fill="#FF7E7E" stroke="white" stroke-width="4.19508"/>
<defs>
<radialGradient id="paint0_radial_53_7" cx="0" cy="0" r="1" gradientUnits="userSpaceOnUse" gradientTransform="translate(260) rotate(90) scale(520)">
<stop stop-color="white"/>
<stop offset="1" stop-color="white"/>
</radialGradient>
</defs>
</svg>
